<?xml version="1.0" standalone="no"?>
<!DOCTYPE svg PUBLIC "-//W3C//DTD SVG 20010904//EN"
 "http://www.w3.org/TR/2001/REC-SVG-20010904/DTD/svg10.dtd">
<svg version="1.0" xmlns="http://www.w3.org/2000/svg"
 width="512.000000pt" height="512.000000pt" viewBox="0 0 512.000000 512.000000"
 preserveAspectRatio="xMidYMid meet">

<g transform="translate(0.000000,512.000000) scale(0.100000,-0.100000)"
fill="#000000" stroke="none">
<path d="M1943 4746 c-97 -32 -171 -93 -214 -179 -12 -23 -43 -125 -68 -226
l-46 -184 -685 -217 c-377 -120 -702 -225 -723 -233 -60 -25 -141 -109 -173
-180 -57 -124 -70 -61 305 -1577 208 -843 341 -1364 357 -1397 14 -30 49 -73
80 -102 70 -64 164 -97 253 -88 31 3 360 87 731 186 371 100 846 227 1056 282
l381 102 439 -108 c493 -121 516 -123 625 -71 65 30 142 107 169 169 10 23
168 647 351 1387 300 1215 333 1353 333 1430 1 74 -3 92 -28 144 -34 69 -96
135 -155 166 -23 11 -178 54 -344 95 -166 41 -788 194 -1382 340 -728 180
-1103 268 -1150 271 -43 2 -86 -1 -112 -10z m977 -596 c448 -110 1035 -254
1304 -320 270 -66 491 -121 492 -123 5 -5 -321 -1317 -327 -1317 -3 0 -89 127
-189 283 -101 155 -197 297 -213 315 -50 52 -107 75 -180 70 -36 -2 -78 -12
-99 -23 -21 -11 -219 -164 -440 -341 -222 -176 -413 -326 -425 -332 -29 -16
-92 -15 -122 2 -14 8 -104 108 -201 222 -155 184 -182 212 -234 239 -54 27
-69 30 -152 30 l-91 0 -188 -93 c-103 -51 -190 -90 -193 -88 -4 4 333 1393
399 1649 8 29 14 37 27 33 9 -3 384 -96 832 -206z m-1651 -1400 c-262 -1058
-258 -1033 -202 -1152 37 -78 95 -138 166 -172 29 -13 296 -84 597 -157 300
-73 548 -135 553 -139 4 -3 -297 -87 -669 -187 -437 -116 -677 -176 -680 -169
-14 40 -634 2580 -630 2583 3 3 139 48 303 100 164 52 408 130 543 173 154 49
246 73 248 66 1 -6 -102 -432 -229 -946z"/>
<path d="M2740 3899 c-68 -13 -144 -55 -188 -103 -169 -183 -112 -458 116
-564 82 -38 193 -38 277 1 236 109 283 411 92 582 -76 70 -197 104 -297 84z"/>
</g>
</svg>
